<svg width="900" height="100" xmlns="http://www.w3.org/2000/svg">
 <!-- Created with Method Draw - http://github.com/duopixel/Method-Draw/ -->
 <g>
  <title>background</title>
  <rect fill="#fff" id="canvas_background" height="102" width="902" y="-1" x="-1"/>
  <g display="none" overflow="visible" y="0" x="0" height="100%" width="100%" id="canvasGrid">
   <rect fill="url(#gridpattern)" stroke-width="0" y="0" x="0" height="100%" width="100%"/>
  </g>
 </g>
 <g>
  <title>Layer 1</title>
  <path d="m-2.500024,182.475677c1.00692,0 5.034602,0 11.076125,0c8.055363,0 23.15917,0 30.207613,0c8.055363,0 15.103806,0 24.166092,0c7.048439,0 15.103806,0 24.166092,0c6.041519,0 14.104385,-0.334854 20.138405,0c10.106865,0.560822 21.189423,2.367279 30.207611,3.360764c5.109329,0.562851 13.089966,1.120239 19.1315,1.120239c10.069199,0 18.082733,0.55928 27.186844,1.120255c7.037659,0.433655 18.124573,0 29.200699,0c11.076126,0 28.193771,0 39.269897,0c11.076111,0 22.152252,0 35.242218,0c11.076111,0 24.169373,0.046387 37.256042,-1.120255c12.086182,-1.077423 24.137054,-2.496399 31.214539,-3.360748c13.050232,-1.593811 20.138428,-1.120255 26.179932,-1.120255c7.048462,0 11.076141,0 17.117645,0c4.027679,0 8.055359,0 12.083038,0c5.034607,0 10.069214,0 17.117676,0c4.027679,0 8.09436,-0.53833 11.076111,0c3.143036,0.567444 8.064606,0.748535 14.096893,1.120255c9.104095,0.560974 19.13147,1.120255 27.186859,1.120255c7.048431,0 14.096863,1.120255 22.152252,1.120255c4.027679,0 8.055359,0 11.076111,0c3.020752,0 5.034607,0 7.048462,0c3.020752,0 6.041504,1.120239 8.055359,1.120239c3.020752,0 5.034607,0 7.048401,0c3.020813,0 8.05542,1.120255 11.076172,1.120255c5.034607,0 10.069214,1.120255 13.089966,1.120255c3.020752,0 4.857117,0.544724 7.048401,1.120255c0.980042,0.257385 1.836365,0.544724 4.02771,1.120255c0.97998,0.257385 2.013855,0 3.020752,0c0,0 1.006897,0 1.006897,0c1.006958,0 1.006958,0 1.006958,0c0,0 1.006897,0 1.006897,0c0,0 0,0 1.006958,0c0,0 0,0 0,0c0,0 -0.712036,-0.32811 0,-1.120255c0.711975,-0.79213 1.006897,0 1.006897,0l0,-1.120255l0,0l0,0" id="svg_3" stroke-width="1.5" stroke="#8CD79F" fill="#8cd79f"/>
  <rect id="svg_7" height="28" width="900.999967" y="40.450012" x="-1.499979" stroke-width="1.5" fill="#8CD79F"/>
  <path d="m0.5,43.59454c2.190128,0 7.665448,0 12.045705,0c5.47532,0 10.950641,0 16.42596,0c9.855576,0 22.996346,0 29.56673,0c8.760509,0 14.235828,0 19.711155,0c4.380257,0 8.760513,0 13.140762,0c3.285194,0 8.785126,0.113354 12.045708,0c4.481239,-0.155788 12.064552,-0.288681 16.425964,-0.618488c7.700867,-0.58234 15.387634,-0.807362 25.186462,-1.23698c11.035294,-0.483837 18.384537,-1.213959 30.661804,-1.855473c10.821579,-0.565449 18.616089,-0.618492 28.471664,-0.927734c9.855576,-0.309246 15.330887,-0.618492 19.711151,-0.618492c4.380249,0 6.570389,0 8.760513,0c3.285187,0 5.475311,0 7.665451,0c5.475311,0 13.151306,-0.113461 20.806213,0c20.892395,0.309669 38.402161,1.395645 55.848267,2.164719c17.613068,0.776432 32.913269,1.429947 41.612427,1.855473c9.947845,0.486599 17.428772,1.05962 27.376617,1.546223c8.699158,0.425522 17.480072,0.772923 28.471649,0.927734c6.562225,0.092426 12.045715,0 17.521027,0c4.380249,0 7.665436,0 12.045715,0c3.285187,0 7.665436,0 14.235809,0c6.570404,0 12.045715,-0.309242 24.091431,-0.309242c9.85556,0 17.521027,0 22.996338,0c3.285187,0 5.475311,0 6.570374,0c1.095093,0 2.190125,0 2.190125,0c0,0 2.173218,0.024967 7.665466,0.309242c6.55188,0.339123 13.140747,0.618492 18.616089,0.618492c5.475342,0 8.760498,0 10.950623,0c1.095093,0 2.190125,0 3.285217,0c1.095032,0 3.105042,-0.307384 13.140747,-0.618492c8.708191,-0.269947 18.534851,-0.463112 24.091431,-0.618488c3.269226,-0.091415 5.475281,-0.309246 5.475281,-0.309246c1.095093,0 1.095093,-0.309246 1.095093,-0.309246c0,-0.309242 0,-0.618488 0,-0.927734c0,-0.309242 0,-0.618492 0,-0.618492c-1.095093,0 -1.095093,0 -1.095093,0c0,0 0,0.30925 0,0.30925c0,0 0,0 0,0.309242c0,0 1.095093,0 1.095093,0c0,0 0,0 1.095093,0l0,0" id="svg_11" stroke-width="1.5" stroke="#8CD79F" fill="none"/>
  <path d="m-4.5,67.459084c5,0 10,0 18,0c9,0 19,0 27,0c7,0 12.925797,-0.208633 18,-0.419281c3.980534,-0.165276 7.080254,-0.130295 10,-0.419357c2.176254,-0.215401 5,-0.419281 6,-0.419281c2,0 4,0 5,0c1,0 3,0 4,0c3,0 6,-0.419357 9,-0.419357c4,0 7,0 11,0c8,0 16,0 23,0c7,0 14,0 23,0c6,0 13,0 19,0c7,0 12,0 18,0c2,0 5,0 9,0c3,0 6,0 10,0c5,0 12,0 19,0c9,0 19,0.419357 26,0.419357c7,0 16,0.419281 20,0.419281c6,0 12,0.419357 16,0.419357c8,0 14.011597,0.262947 20,0.419281c8.046692,0.210091 18.021393,0.294441 34,0.838707c10.016876,0.341148 20.953308,0.62854 29,0.838631c7.984528,0.20842 14,0 19,0c2,0 4,0 5,0c2,0 3.025818,0.134338 5,0c3.121429,-0.212395 5,-0.41935 9,-0.838631c4,-0.419357 8,-0.838707 13,-1.257988c5,-0.419357 9.966827,-0.915512 15,-1.257996c7.95816,-0.541534 14.815582,-1.254845 23,-1.677338c7.940063,-0.409859 13.953308,-0.209259 22,-0.419285c5.988403,-0.15633 12,0 17,0c3,0 5.963837,0.048599 9,0.419285c3.958679,0.483452 11,0.41935 16,0.41935c6,0 11,0.419357 14,0.419357c3,0 4,0 5,0c0,0 1,0 1,0c0,0 1,0 1,0c0,0 1,0 2,0c3,0 12.009521,0.191658 23,0c12.031189,-0.209885 18,-0.419357 24,-0.419357c2,0 3,0 4,0c0,0 0,0 1,0c0,0 0,0 0,0.419357l0,0l0,0.419281" id="svg_14" fill-opacity="null" stroke-opacity="null" stroke-width="1.5" stroke="#8CD79F" fill="none"/>
  <path d="m-3.5,61.977383c0,0.58485 0,0.58485 4.253968,0.58485c5.31746,0 8.507936,0 13.825397,0c2.126984,0 4.253969,0 6.380953,0c0,0 1.063492,0 1.063492,-0.58485c0,0 0,0 1.063492,-0.584854c0,0 -0.326027,-0.268333 1.063492,-0.584858c0.982538,-0.223808 1.063492,0 3.190477,0c4.253967,0 7.444443,0 14.888889,0c3.190475,0 7.444443,0 10.634918,0c3.190479,0 4.991432,0.268333 6.380955,0.584858c0.982536,0.223808 2.126984,0 3.190475,0.584854c0,0 1.063492,0 1.063492,0c2.126984,0 4.124809,0.288601 7.444443,0.58485c3.149284,0.281048 6.380951,0.584854 9.571426,0.584854c5.317467,0 11.698418,0 17.015877,0c5.317459,0 9.571426,0 13.825394,0c4.253975,0 9.571434,0 15.952385,0c5.317459,0 11.69841,0 15.952377,0c5.317459,0 8.593277,0.403114 11.69841,0c2.314438,-0.300461 4.269501,-0.411961 7.444443,-0.584854c5.396378,-0.293861 10.666794,-0.299015 14.888901,-0.58485c4.35202,-0.29464 7.315277,-0.873459 10.634918,-1.169712c3.149277,-0.281048 5.317459,0 8.507935,0c2.126984,0 4.253967,0 7.444443,0c2.126984,0 6.380951,0 10.634918,0c5.317459,0 10.634918,0 18.079361,0c5.317474,0 10.634933,0 15.952393,0c5.317459,0 9.571426,0 12.761887,0c2.126984,0 3.190491,0 4.253967,0c1.063507,0 1.063507,0 2.126984,0c4.253998,0 12.705261,0.291691 20.20636,0.584858c5.304108,0.207298 12.803864,-0.247223 26.587311,0.584854c7.475098,0.451252 13.825378,0.58485 17.015869,0.58485c2.126984,0 3.19046,0 4.253967,0c0,0 0,0 1.063477,0c0,0 7.33609,0.818222 14.888916,1.754562c6.310608,0.782341 11.641968,0.770248 17.015869,1.169708c14.792297,1.099548 27.584808,2.04599 34.031738,2.339417c4.239471,0.192955 5.317474,0.584854 6.380951,0.584854c0,0 0,0 0,0c1.063507,0 1.063507,0 1.063507,0c1.063477,0 7.426331,0.292351 30.841248,0.584846c9.56897,0.119537 22.333344,0.584862 28.714294,0.584862c4.253967,0 5.317474,0 5.317474,0c0,0 1.063477,0 1.063477,0c0,0 0,0 1.063507,0c7.444427,0 22.333313,0 31.904755,0c12.761871,0 15.952362,0 17.015839,0c0,0 0.311523,0.413551 1.063538,0c0.751953,-0.413559 -0.156677,-0.686096 1.063477,-1.169708c1.929138,-0.764664 15.271057,-1.762619 34.031738,-5.848541c14.157104,-3.083294 26.194214,-7.347443 34.031738,-9.942516c2.037292,-0.674557 3.190491,-1.169704 3.190491,-1.169704c0,0 0,0 0,0c0,0.584854 0,0.584854 0,0.584854c0,0.58485 0,0.58485 0,0.58485c0,0 -1.063477,0 -1.063477,0c0,0 0,0 -1.063538,0c0,0 -1.063477,0 -2.126953,0c0,0 -1.375,0.171303 -2.127014,0.584858c-0.751953,0.413555 0,0.584854 0,0.584854c0,0.58485 0,0.58485 0,0.58485c0,0.584854 2.438538,0.756153 3.190491,1.169708c0.752014,0.413559 1.063477,0.584854 2.127014,1.169708l0,0" id="svg_15" fill-opacity="null" stroke-opacity="null" stroke-width="1.5" stroke="#8CD79F" fill="none"/>
  <path d="m483.5,39.450012c3.103973,0 8.277222,0 17.589111,0c7.242584,0 16.554443,0 26.901001,0c8.277222,0 18.623718,0 24.831665,0c9.31189,0 15.549988,-0.591225 21.727722,0c5.250061,0.502445 11.329407,2.327652 23.797058,4c9.280212,1.244808 17.668396,1.316479 30.004944,3c10.447815,1.425777 17.540771,3.499031 25.866333,4c6.195923,0.372826 11.381165,0 15.519775,0c3.103943,0 9.31189,0 18.623779,0c23.796997,0 43.455444,0 64.148499,0c9.31189,0 19.562988,-1.496227 23.797058,-2c3.080688,-0.36655 5.173218,0 6.207886,0c3.103943,0 6.207947,0 11.381226,0c4.138611,0 8.277222,0 12.415833,0c6.207886,0 14.485107,0 19.658386,0c5.173279,0 7.060181,-0.486256 9.31189,-1c1.007019,-0.229752 1.034668,-1 2.069336,-2c0,0 1.034607,0 1.034607,-1c0,0 1.034668,0 2.069336,0c11.381165,0 23.796997,0 37.247498,0c10.346558,0 18.623779,0 20.693054,0c1.034668,0 1.034668,0 1.034668,0c1.034668,0 1.034668,0 1.034668,0c1.034668,0 1.034668,-1 1.034668,-1c0,0 0,0 0,-1l0,0l-1.034668,0" id="svg_17" stroke-width="1.5" fill="none"/>
  <path d="m524.5,68.14595c1,0 4,0 9,0c4,0 12,0 17,0c8,0 15,0 20,0c7,0 12,0 18,0c7,0 11,0 14,0c2,0 4,0 7,0c4,0 7,0 11,0c3,0 7,0 13,0c5,0 10,0 15,0c4,0 7.87854,0.07502 11,0.152031c2.961243,0.073059 6,0 8,0c3,0 6,0 12,0c4,0 6,0 9,0c3,0 6,0 9,0c8,0 15.034058,-0.125397 25,0c6.062012,0.076271 18,0.152031 24,0.152031c7,0 13,0 17,0c5,0 9,0 14,0c4,0 9,0 13,0c6,0 10,0 13,0c3,0 7,0 10,0c5,0 10,0 15,0c4,0 8,0 11,0c9,0 13,0 20,0c5,0 10,-0.152031 15,-0.152031c2,0 6,-0.152031 8,-0.152031c2,0 2.076111,0.058182 3,0c1.30658,-0.082283 2,-0.152031 2,-0.152031c1,0 1,0 1,0c0,0 1,0 1,0c0,0 0.69342,-0.069748 2,-0.152031c1.847778,-0.116356 3,0 4,0c1,0 2,0 3,0c0,0 0,0 0,0c0,0 0,0 0,0l0,0.152031" id="svg_18" fill-opacity="null" stroke-opacity="null" stroke-width="1.5" stroke="#8CD79F" fill="none"/>
 </g>
</svg>